<?xml version="1.0" encoding="utf-8"?><!DOCTYPE svg PUBLIC "-//W3C//DTD SVG 1.1//EN" "http://www.w3.org/Graphics/SVG/1.1/DTD/svg11.dtd"><svg width="105" height="20" viewBox="0 0 105 20" xmlns="http://www.w3.org/2000/svg" xmlns:xlink="http://www.w3.org/1999/xlink"><svg viewBox="-6 -0.5 21 20" width="21" height="20" id="facebook"><path fill="#FFF" d="M1.9 3.7v2.6H0v3.2h1.9V19h3.9V9.5h2.6s.2-1.5.4-3.2h-3V4.1s.4-.8.9-.8h2.1V0H5.9c-4.1 0-4 3.2-4 3.7z"/></svg><svg viewBox="5.5 6 21 20" width="21" height="20" id="linkedin" x="21"><path fill="#FFF" d="M10.8 8.8c0 1.3-1.1 2.3-2.5 2.3s-2.5-1-2.5-2.3 1.1-2.3 2.5-2.3 2.5 1 2.5 2.3zm-.4 4H6.2v12.7h4.2V12.8zm6.7 0h-4v12.7h4v-6.6c0-1.8.9-2.8 2.6-2.8 1.5 0 2.3 1 2.3 2.8v6.6h4.2v-8s-2.1-5-5-5-4.1 2.1-4.1 2.1v-1.8z"/></svg><svg viewBox="5.5 6 21 20" width="21" height="20" id="mail" x="42"><path fill="#FFF" d="M16 18.6c-.4 0-.7-.1-1.3-.4l-9.2-4.9v9.2c0 .8.5 1.3 1.3 1.3h18.4c.8 0 1.3-.5 1.3-1.3v-9.2l-9.2 4.9c-.6.3-.9.4-1.3.4zm9.2-10.5H6.8c-.8 0-1.3.7-1.3 1.3v1.1L16 16l10.5-5.5V9.4c0-.6-.5-1.3-1.3-1.3z"/></svg><svg viewBox="5.5 6 21 20" width="21" height="20" id="print" x="63"><path fill="#FFF" d="M10 6h12v4H10V6zM20 19v5h-8v-5h8m2-2H10v9h12v-9z"/><path fill="#FFF" d="M22 11H10c-2.2 0-4 1.8-4 4v6h5v-3h10v3h5v-6c0-2.2-1.8-4-4-4zm1 4c-.6 0-1-.4-1-1s.4-1 1-1 1 .4 1 1-.4 1-1 1z"/></svg><svg viewBox="-1 -1.5 21 20" width="21" height="20" id="twitter" x="84"><path fill="#FFF" d="M18.6 2.6c-.7.3-1.4.5-2.2.6.8-.4 1.4-1.2 1.7-2.2-.7.5-1.6.8-2.4 1C15 1.2 14 .7 12.9.7c-2.1 0-3.8 1.8-3.8 4.1 0 .3 0 .6.1.9-3.2-.1-6-1.8-7.9-4.2-.3.6-.5 1.3-.5 2 0 1.4.7 2.7 1.7 3.4-.6 0-1.2-.2-1.7-.5v.1c0 2 1.3 3.7 3.1 4-.3.1-.7.1-1 .1-.2 0-.5 0-.7-.1.5 1.6 1.9 2.8 3.6 2.9-1.3 1.1-3 1.8-4.7 1.8-.3 0-.6 0-.9-.1C1.7 16.3 3.7 17 5.9 17c7 0 10.9-6.3 10.9-11.7v-.5c.7-.6 1.3-1.4 1.8-2.2z"/></svg></svg>