<?xml version="1.0" encoding="iso-8859-1"?><!DOCTYPE svg PUBLIC "-//W3C//DTD SVG 1.1//EN" "http://www.w3.org/Graphics/SVG/1.1/DTD/svg11.dtd"><svg width="203" height="135" viewBox="0 0 203 135" xmlns="http://www.w3.org/2000/svg" xmlns:xlink="http://www.w3.org/1999/xlink"><svg width="9" height="19" viewBox="0 0 9 19" id="facebook"><path d="M1.917 3.682v2.613H0v3.2h1.917V19h3.937V9.494h2.64s.25-1.535.368-3.21H5.87V4.096c0-.327.428-.767.853-.767h2.145V0H5.95C1.818 0 1.917 3.203 1.917 3.682z" fill="#FFF"/></svg><svg viewBox="0 0 135 135" width="135" height="135" id="linkedin" x="9"><path fill="#FFF" d="M33.8 22.2c0 8-6.9 14.5-15.5 14.5S2.9 30.2 2.9 22.2 9.8 7.7 18.4 7.7c8.5 0 15.4 6.5 15.4 14.5zM31.5 47H5.4v78.5h26.1V47zm41.8 0h-25v78.5h25.1V84.3c0-11 5.5-17.6 15.9-17.6 9.6 0 14.2 6.3 14.2 17.6v41.2h26V75.8s-12.8-31.2-30.7-31.2-25.4 13-25.4 13V47h-.1z"/></svg><svg height="16" viewBox="0 0 16 16" width="16" id="mail" x="144"><path d="M8 10c-.266 0-.5-.094-1-.336L0 6v7c0 .55.45 1 1 1h14c.55 0 1-.45 1-1V6L9 9.664c-.5.242-.734.336-1 .336zm7-8H1c-.55 0-1 .45-1 1v.758l8 4.205 8-4.205V3c0-.55-.45-1-1-1z"/></svg><svg version="1" viewBox="0 0 24 24" width="24" height="24" id="print" x="160"><path d="M6 2h12v4H6V2zM16 15v5H8v-5h8m2-2H6v9h12v-9z"/><path d="M18 7H6c-2.2 0-4 1.8-4 4v6h5v-3h10v3h5v-6c0-2.2-1.8-4-4-4zm1 4c-.6 0-1-.4-1-1s.4-1 1-1 1 .4 1 1-.4 1-1 1z"/></svg><svg width="19" height="17" viewBox="0 0 19 17" id="twitter" x="184"><path d="M18.635 2.623c-.69.334-1.422.55-2.2.65.793-.512 1.4-1.313 1.69-2.275-.742.47-1.562.805-2.435 1-.695-.803-1.692-1.304-2.79-1.304-2.11 0-3.82 1.84-3.82 4.117 0 .32.032.637.095.934-3.172-.163-5.993-1.808-7.88-4.293C.967 2.058.78 2.763.78 3.52c0 1.425.673 2.69 1.7 3.42-.627-.026-1.217-.2-1.73-.513v.058c0 1.99 1.316 3.65 3.065 4.034-.32.094-.66.135-1.01.135-.246 0-.48-.016-.716-.072.483 1.64 1.897 2.833 3.57 2.857-1.31 1.11-2.957 1.762-4.748 1.762-.31 0-.615-.018-.913-.058C1.69 16.316 3.696 17 5.86 17c7.032 0 10.88-6.273 10.88-11.712 0-.174-.005-.35-.014-.526.748-.59 1.397-1.315 1.91-2.14z" fill="#FFF"/></svg></svg>