<?xml version="1.0" encoding="utf-8"?><!DOCTYPE svg PUBLIC "-//W3C//DTD SVG 1.1//EN" "http://www.w3.org/Graphics/SVG/1.1/DTD/svg11.dtd"><svg width="270" height="24" viewBox="0 0 270 24" xmlns="http://www.w3.org/2000/svg" xmlns:xlink="http://www.w3.org/1999/xlink"><svg viewBox="0 0 24 24" width="24" height="24" id="arrow-left"><path fill="#FFF" d="M20 11H7.8l5.6-5.6L12 4l-8 8 8 8 1.4-1.4L7.8 13H20v-2z"/></svg><svg viewBox="0 0 24 24" width="24" height="24" id="arrow-right" x="24"><path fill="#FFF" d="M12 4l-1.4 1.4 5.6 5.6H4v2h12.2l-5.6 5.6L12 20l8-8-8-8z"/></svg><svg viewBox="0 0 24 24" width="24" height="24" id="calendar" x="48"><path fill="#FFF" d="M19 3h-1V1h-2v2H8V1H6v2H5c-1.1 0-2 .9-2 2v14c0 1.1.9 2 2 2h14c1.1 0 2-.9 2-2V5c0-1.1-.9-2-2-2zm0 16H5V8h14v11zM7 10h5v5H7v-5z"/></svg><svg viewBox="-6 -0.5 21 20" width="21" height="20" id="facebook" x="72"><path fill="#FFF" d="M1.9 3.7v2.6H0v3.2h1.9V19h3.9V9.5h2.6s.2-1.5.4-3.2h-3V4.1s.4-.8.9-.8h2.1V0H5.9c-4.1 0-4 3.2-4 3.7z"/></svg><svg fill="#FFF" height="24" viewBox="0 0 24 24" width="24" id="filter" x="93"><path d="M10 18h4v-2h-4v2zM3 6v2h18V6H3zm3 7h12v-2H6v2z"/><path d="M0 0h24v24H0z" fill="none"/></svg><svg viewBox="17.8 18.3 21 20" width="21" height="20" id="instagram" x="117"><path fill="#FFF" d="M34.5 18.3H22.2c-2.1 0-3.9 1.7-3.9 3.9V34.5c0 2.1 1.7 3.9 3.9 3.9h12.3c2.1 0 3.9-1.7 3.9-3.9V22.2c-.1-2.1-1.8-3.9-3.9-3.9zm1.1 2.4h.4V24h-3.4v-3.4l3 .1zm-10.1 5.6c.6-.9 1.7-1.5 2.9-1.5s2.2.6 2.9 1.5c.4.6.7 1.3.7 2.1 0 1.9-1.6 3.5-3.5 3.5S25 30.3 25 28.4c-.2-.8.1-1.5.5-2.1zm10.9 8.2c0 1.1-.9 1.9-1.9 1.9H22.2c-1.1 0-1.9-.9-1.9-1.9v-8.2h3c-.3.6-.4 1.3-.4 2.1 0 3 2.5 5.5 5.5 5.5s5.5-2.5 5.5-5.5c0-.7-.1-1.4-.4-2.1h3v8.2z"/></svg><svg viewBox="5.5 6 21 20" width="21" height="20" id="linkedin" x="138"><path fill="#FFF" d="M10.8 8.8c0 1.3-1.1 2.3-2.5 2.3s-2.5-1-2.5-2.3 1.1-2.3 2.5-2.3 2.5 1 2.5 2.3zm-.4 4H6.2v12.7h4.2V12.8zm6.7 0h-4v12.7h4v-6.6c0-1.8.9-2.8 2.6-2.8 1.5 0 2.3 1 2.3 2.8v6.6h4.2v-8s-2.1-5-5-5-4.1 2.1-4.1 2.1v-1.8z"/></svg><svg viewBox="389.5 630 21 20" width="21" height="20" id="mail" x="159"><path fill="#FFF" d="M399.5 643.5c-.4 0-.7-.1-1.2-.4l-8.8-4.7v8.8c0 .8.5 1.2 1.2 1.2h17.5c.8 0 1.2-.5 1.2-1.2v-8.8l-8.8 4.7c-.4.3-.7.4-1.1.4zm8.8-10h-17.5c-.8 0-1.2.7-1.2 1.2v1l10 5.2 10-5.2v-1c-.1-.5-.6-1.2-1.3-1.2z"/></svg><svg viewBox="389.5 630 21 20" width="21" height="20" id="print" x="180"><path fill="#FFF" d="M403.8 643.4v4.7h-7.5v-4.7h7.5m1.9-1.9h-11.3v8.5h11.3v-8.5z"/><path fill="#FFF" d="M405.7 635.9h-11.3c-2.1 0-3.8 1.7-3.8 3.8v5.7h4.7v-2.8h9.4v2.8h4.7v-5.7c0-2.1-1.7-3.8-3.7-3.8zm.5 4.6c-.8 0-1.4-.6-1.4-1.4 0-.8.6-1.4 1.4-1.4.8 0 1.4.6 1.4 1.4-.1.9-.6 1.4-1.4 1.4zM394.3 630h11.3v3.8h-11.3V630z"/></svg><svg fill="#FFF" height="24" viewBox="0 0 24 24" width="24" id="search" x="201"><path d="M15.5 14h-.79l-.28-.27C15.41 12.59 16 11.11 16 9.5 16 5.91 13.09 3 9.5 3S3 5.91 3 9.5 5.91 16 9.5 16c1.61 0 3.09-.59 4.23-1.57l.27.28v.79l5 4.99L20.49 19l-4.99-5zm-6 0C7.01 14 5 11.99 5 9.5S7.01 5 9.5 5 14 7.01 14 9.5 11.99 14 9.5 14z"/><path d="M0 0h24v24H0z" fill="none"/></svg><svg viewBox="0 0 24 24" width="24" height="24" id="search-gray" x="225"><path fill="#ABABAB" d="M15.5 14h-.8l-.3-.3c1-1.1 1.6-2.6 1.6-4.2C16 5.9 13.1 3 9.5 3S3 5.9 3 9.5 5.9 16 9.5 16c1.6 0 3.1-.6 4.2-1.6l.3.3v.8l5 5 1.5-1.5-5-5zm-6 0C7 14 5 12 5 9.5S7 5 9.5 5 14 7 14 9.5 12 14 9.5 14z"/><path fill="none" d="M0 0h24v24H0V0z"/></svg><svg viewBox="-1 -1.5 21 20" width="21" height="20" id="twitter" x="249"><path fill="#FFF" d="M18.6 2.6c-.7.3-1.4.5-2.2.6.8-.4 1.4-1.2 1.7-2.2-.7.5-1.6.8-2.4 1C15 1.2 14 .7 12.9.7c-2.1 0-3.8 1.8-3.8 4.1 0 .3 0 .6.1.9-3.2-.1-6-1.8-7.9-4.2-.3.6-.5 1.3-.5 2 0 1.4.7 2.7 1.7 3.4-.6 0-1.2-.2-1.7-.5v.1c0 2 1.3 3.7 3.1 4-.3.1-.7.1-1 .1-.2 0-.5 0-.7-.1.5 1.6 1.9 2.8 3.6 2.9-1.3 1.1-3 1.8-4.7 1.8-.3 0-.6 0-.9-.1C1.7 16.3 3.7 17 5.9 17c7 0 10.9-6.3 10.9-11.7v-.5c.7-.6 1.3-1.4 1.8-2.2z"/></svg></svg>