<?xml version="1.0" encoding="iso-8859-1"?><!DOCTYPE svg PUBLIC "-//W3C//DTD SVG 1.1//EN" "http://www.w3.org/Graphics/SVG/1.1/DTD/svg11.dtd"><svg width="91" height="20" viewBox="0 0 91 20" xmlns="http://www.w3.org/2000/svg" xmlns:xlink="http://www.w3.org/1999/xlink"><svg width="9" height="19" viewBox="0 0 9 19" id="facebook"><path d="M1.917 3.682v2.613H0v3.2h1.917V19h3.937V9.494h2.64s.25-1.535.368-3.21H5.87V4.096c0-.327.428-.767.853-.767h2.145V0H5.95C1.818 0 1.917 3.203 1.917 3.682z" fill="#FFF"/></svg><svg viewBox="5.5 6 21 20" width="21" height="20" id="linkedin" x="9"><path fill="#FFF" d="M10.8 8.8c0 1.3-1.1 2.3-2.5 2.3s-2.5-1-2.5-2.3 1.1-2.3 2.5-2.3 2.5 1 2.5 2.3zm-.4 4H6.2v12.7h4.2V12.8zm6.7 0h-4v12.7h4v-6.6c0-1.8.9-2.8 2.6-2.8 1.5 0 2.3 1 2.3 2.8v6.6h4.2v-8s-2.1-5-5-5-4.1 2.1-4.1 2.1v-1.8z"/></svg><svg viewBox="-2.5 -2 21 20" width="21" height="20" id="mail" x="30"><path fill="#FFF" d="M8 10c-.3 0-.5-.1-1-.3L0 6v7c0 .6.4 1 1 1h14c.6 0 1-.4 1-1V6L9 9.7c-.5.2-.7.3-1 .3zm7-8H1c-.6 0-1 .5-1 1v.8L8 8l8-4.2V3c0-.5-.4-1-1-1z"/></svg><svg viewBox="5.5 6 21 20" width="21" height="20" id="print" x="51"><path fill="#FFF" d="M10 6h12v4H10V6zM20 19v5h-8v-5h8m2-2H10v9h12v-9z"/><path fill="#FFF" d="M22 11H10c-2.2 0-4 1.8-4 4v6h5v-3h10v3h5v-6c0-2.2-1.8-4-4-4zm1 4c-.6 0-1-.4-1-1s.4-1 1-1 1 .4 1 1-.4 1-1 1z"/></svg><svg width="19" height="17" viewBox="0 0 19 17" id="twitter" x="72"><path d="M18.635 2.623c-.69.334-1.422.55-2.2.65.793-.512 1.4-1.313 1.69-2.275-.742.47-1.562.805-2.435 1-.695-.803-1.692-1.304-2.79-1.304-2.11 0-3.82 1.84-3.82 4.117 0 .32.032.637.095.934-3.172-.163-5.993-1.808-7.88-4.293C.967 2.058.78 2.763.78 3.52c0 1.425.673 2.69 1.7 3.42-.627-.026-1.217-.2-1.73-.513v.058c0 1.99 1.316 3.65 3.065 4.034-.32.094-.66.135-1.01.135-.246 0-.48-.016-.716-.072.483 1.64 1.897 2.833 3.57 2.857-1.31 1.11-2.957 1.762-4.748 1.762-.31 0-.615-.018-.913-.058C1.69 16.316 3.696 17 5.86 17c7.032 0 10.88-6.273 10.88-11.712 0-.174-.005-.35-.014-.526.748-.59 1.397-1.315 1.91-2.14z" fill="#FFF"/></svg></svg>