<svg width="65" height="52" viewBox="0 0 65 52" xmlns="http://www.w3.org/2000/svg"><title>Unibz Logo Copy 10</title><g fill="#000" fill-rule="evenodd"><path d="M38.928.17h25.67v3.635H38.93V.17zM12.574 34.504h-3.56V33.17c-.958 1.003-2.174 1.503-3.65 1.503-1.44 0-2.596-.43-3.454-1.28-.993-.985-1.487-2.355-1.487-4.117v-9.26h3.673v8.764c0 .906.26 1.59.777 2.052.428.39.965.585 1.61.585.666 0 1.213-.194 1.637-.585.517-.46.777-1.146.777-2.052v-8.765h3.677v14.49M28.198 34.504h-3.675v-8.76c0-.907-.26-1.595-.783-2.058-.43-.386-.968-.585-1.618-.585-.67 0-1.218.2-1.645.586-.526.463-.784 1.15-.784 2.057v8.76h-3.646V20.016h3.564v1.334c.957-1 2.173-1.5 3.65-1.5 1.443 0 2.59.426 3.452 1.28.992.98 1.486 2.352 1.486 4.113v9.26M31.73 14.622h3.676v2.945H31.73v-2.945zm0 5.393h3.676v14.49H31.73v-14.49zM51.167 27.246c0 1.482-.07 2.597-.2 3.334-.204 1.21-.638 2.133-1.29 2.783-.878.874-2.07 1.31-3.565 1.31-1.498 0-2.71-.507-3.647-1.53v1.36h-3.537V14.706h3.676v6.587c.88-.96 2.05-1.442 3.527-1.442 1.49 0 2.676.435 3.548 1.308.654.65 1.085 1.572 1.288 2.778.132.743.2 1.845.2 3.31m-3.678 0c0-1.277-.103-2.196-.304-2.753-.373-.928-1.084-1.392-2.137-1.392-1.055 0-1.768.465-2.137 1.393-.205.557-.306 1.476-.306 2.753 0 1.28.1 2.197.306 2.753.37.946 1.082 1.417 2.137 1.417 1.053 0 1.764-.47 2.137-1.418.2-.557.304-1.474.304-2.754M64.6 34.504H53.46v-2.75l6.483-8.483h-6.117v-3.255H64.6v2.755l-6.567 8.48H64.6v3.254M38.928 47.41h25.67v3.633H38.93V47.41z"/><path d="M12.574 34.504h-3.56V33.17c-.958 1.003-2.174 1.503-3.65 1.503-1.44 0-2.596-.43-3.454-1.28-.993-.985-1.487-2.355-1.487-4.117v-9.26h3.673v8.764c0 .906.26 1.59.777 2.052.428.39.965.585 1.61.585.666 0 1.213-.194 1.637-.585.517-.46.777-1.146.777-2.052v-8.765h3.677v14.49M28.198 34.504h-3.675v-8.76c0-.907-.26-1.595-.783-2.058-.43-.386-.968-.585-1.618-.585-.67 0-1.218.2-1.645.586-.526.463-.784 1.15-.784 2.057v8.76h-3.646V20.016h3.564v1.334c.957-1 2.173-1.5 3.65-1.5 1.443 0 2.59.426 3.452 1.28.992.98 1.486 2.352 1.486 4.113v9.26M31.73 14.622h3.676v2.945H31.73v-2.945zm0 5.393h3.676v14.49H31.73v-14.49zM51.167 27.246c0 1.482-.07 2.597-.2 3.334-.204 1.21-.638 2.133-1.29 2.783-.878.874-2.07 1.31-3.565 1.31-1.498 0-2.71-.507-3.647-1.53v1.36h-3.537V14.706h3.676v6.587c.88-.96 2.05-1.442 3.527-1.442 1.49 0 2.676.435 3.548 1.308.654.65 1.085 1.572 1.288 2.778.132.743.2 1.845.2 3.31m-3.678 0c0-1.277-.103-2.196-.304-2.753-.373-.928-1.084-1.392-2.137-1.392-1.055 0-1.768.465-2.137 1.393-.205.557-.306 1.476-.306 2.753 0 1.28.1 2.197.306 2.753.37.946 1.082 1.417 2.137 1.417 1.053 0 1.764-.47 2.137-1.418.2-.557.304-1.474.304-2.754M64.6 34.504H53.46v-2.75l6.483-8.483h-6.117v-3.255H64.6v2.755l-6.567 8.48H64.6v3.254M38.928.17h25.67v3.635H38.93V.17z"/><path d="M12.574 34.504h-3.56V33.17c-.958 1.003-2.174 1.503-3.65 1.503-1.44 0-2.596-.43-3.454-1.28-.993-.985-1.487-2.355-1.487-4.117v-9.26h3.673v8.764c0 .906.26 1.59.777 2.052.428.39.965.585 1.61.585.666 0 1.213-.194 1.637-.585.517-.46.777-1.146.777-2.052v-8.765h3.677v14.49M28.198 34.504h-3.675v-8.76c0-.907-.26-1.595-.783-2.058-.43-.386-.968-.585-1.618-.585-.67 0-1.218.2-1.645.586-.526.463-.784 1.15-.784 2.057v8.76h-3.646V20.016h3.564v1.334c.957-1 2.173-1.5 3.65-1.5 1.443 0 2.59.426 3.452 1.28.992.98 1.486 2.352 1.486 4.113v9.26M31.73 14.622h3.676v2.945H31.73v-2.945zm0 5.393h3.676v14.49H31.73v-14.49zM51.167 27.246c0 1.482-.07 2.597-.2 3.334-.204 1.21-.638 2.133-1.29 2.783-.878.874-2.07 1.31-3.565 1.31-1.498 0-2.71-.507-3.647-1.53v1.36h-3.537V14.706h3.676v6.587c.88-.96 2.05-1.442 3.527-1.442 1.49 0 2.676.435 3.548 1.308.654.65 1.085 1.572 1.288 2.778.132.743.2 1.845.2 3.31m-3.678 0c0-1.277-.103-2.196-.304-2.753-.373-.928-1.084-1.392-2.137-1.392-1.055 0-1.768.465-2.137 1.393-.205.557-.306 1.476-.306 2.753 0 1.28.1 2.197.306 2.753.37.946 1.082 1.417 2.137 1.417 1.053 0 1.764-.47 2.137-1.418.2-.557.304-1.474.304-2.754M64.6 34.504H53.46v-2.75l6.483-8.483h-6.117v-3.255H64.6v2.755l-6.567 8.48H64.6v3.254M38.928 47.41h25.67v3.633H38.93V47.41z"/><path d="M12.574 34.504h-3.56V33.17c-.958 1.003-2.174 1.503-3.65 1.503-1.44 0-2.596-.43-3.454-1.28-.993-.985-1.487-2.355-1.487-4.117v-9.26h3.673v8.764c0 .906.26 1.59.777 2.052.428.39.965.585 1.61.585.666 0 1.213-.194 1.637-.585.517-.46.777-1.146.777-2.052v-8.765h3.677v14.49M28.198 34.504h-3.675v-8.76c0-.907-.26-1.595-.783-2.058-.43-.386-.968-.585-1.618-.585-.67 0-1.218.2-1.645.586-.526.463-.784 1.15-.784 2.057v8.76h-3.646V20.016h3.564v1.334c.957-1 2.173-1.5 3.65-1.5 1.443 0 2.59.426 3.452 1.28.992.98 1.486 2.352 1.486 4.113v9.26M31.73 14.622h3.676v2.945H31.73v-2.945zm0 5.393h3.676v14.49H31.73v-14.49zM51.167 27.246c0 1.482-.07 2.597-.2 3.334-.204 1.21-.638 2.133-1.29 2.783-.878.874-2.07 1.31-3.565 1.31-1.498 0-2.71-.507-3.647-1.53v1.36h-3.537V14.706h3.676v6.587c.88-.96 2.05-1.442 3.527-1.442 1.49 0 2.676.435 3.548 1.308.654.65 1.085 1.572 1.288 2.778.132.743.2 1.845.2 3.31m-3.678 0c0-1.277-.103-2.196-.304-2.753-.373-.928-1.084-1.392-2.137-1.392-1.055 0-1.768.465-2.137 1.393-.205.557-.306 1.476-.306 2.753 0 1.28.1 2.197.306 2.753.37.946 1.082 1.417 2.137 1.417 1.053 0 1.764-.47 2.137-1.418.2-.557.304-1.474.304-2.754M64.63 34.17H53.49v-2.748l6.483-8.483h-6.117v-3.257H64.63v2.755l-6.567 8.48h6.566v3.253"/></g></svg>