<?xml version="1.0" encoding="utf-8"?><!DOCTYPE svg PUBLIC "-//W3C//DTD SVG 1.1//EN" "http://www.w3.org/Graphics/SVG/1.1/DTD/svg11.dtd"><svg width="105" height="20" viewBox="0 0 105 20" xmlns="http://www.w3.org/2000/svg" xmlns:xlink="http://www.w3.org/1999/xlink"><svg viewBox="-6 -0.5 21 20" width="21" height="20" id="facebook"><path fill="#FFF" d="M1.9 3.7v2.6H0v3.2h1.9V19h3.9V9.5h2.6s.2-1.5.4-3.2h-3V4.1s.4-.8.9-.8h2.1V0H5.9c-4.1 0-4 3.2-4 3.7z"/></svg><svg viewBox="5.5 6 21 20" width="21" height="20" id="linkedin" x="21"><path fill="#FFF" d="M10.8 8.8c0 1.3-1.1 2.3-2.5 2.3s-2.5-1-2.5-2.3 1.1-2.3 2.5-2.3 2.5 1 2.5 2.3zm-.4 4H6.2v12.7h4.2V12.8zm6.7 0h-4v12.7h4v-6.6c0-1.8.9-2.8 2.6-2.8 1.5 0 2.3 1 2.3 2.8v6.6h4.2v-8s-2.1-5-5-5-4.1 2.1-4.1 2.1v-1.8z"/></svg><svg viewBox="389.5 630 21 20" width="21" height="20" id="mail" x="42"><path fill="#FFF" d="M399.5 643.5c-.4 0-.7-.1-1.2-.4l-8.8-4.7v8.8c0 .8.5 1.2 1.2 1.2h17.5c.8 0 1.2-.5 1.2-1.2v-8.8l-8.8 4.7c-.4.3-.7.4-1.1.4zm8.8-10h-17.5c-.8 0-1.2.7-1.2 1.2v1l10 5.2 10-5.2v-1c-.1-.5-.6-1.2-1.3-1.2z"/></svg><svg viewBox="389.5 630 21 20" width="21" height="20" id="print" x="63"><path fill="#FFF" d="M403.8 643.4v4.7h-7.5v-4.7h7.5m1.9-1.9h-11.3v8.5h11.3v-8.5z"/><path fill="#FFF" d="M405.7 635.9h-11.3c-2.1 0-3.8 1.7-3.8 3.8v5.7h4.7v-2.8h9.4v2.8h4.7v-5.7c0-2.1-1.7-3.8-3.7-3.8zm.5 4.6c-.8 0-1.4-.6-1.4-1.4 0-.8.6-1.4 1.4-1.4.8 0 1.4.6 1.4 1.4-.1.9-.6 1.4-1.4 1.4zM394.3 630h11.3v3.8h-11.3V630z"/></svg><svg viewBox="-1 -1.5 21 20" width="21" height="20" id="twitter" x="84"><path fill="#FFF" d="M18.6 2.6c-.7.3-1.4.5-2.2.6.8-.4 1.4-1.2 1.7-2.2-.7.5-1.6.8-2.4 1C15 1.2 14 .7 12.9.7c-2.1 0-3.8 1.8-3.8 4.1 0 .3 0 .6.1.9-3.2-.1-6-1.8-7.9-4.2-.3.6-.5 1.3-.5 2 0 1.4.7 2.7 1.7 3.4-.6 0-1.2-.2-1.7-.5v.1c0 2 1.3 3.7 3.1 4-.3.1-.7.1-1 .1-.2 0-.5 0-.7-.1.5 1.6 1.9 2.8 3.6 2.9-1.3 1.1-3 1.8-4.7 1.8-.3 0-.6 0-.9-.1C1.7 16.3 3.7 17 5.9 17c7 0 10.9-6.3 10.9-11.7v-.5c.7-.6 1.3-1.4 1.8-2.2z"/></svg></svg>