<svg xmlns="http://www.w3.org/2000/svg" viewBox="0 0 65 52"><title>Unibz Logo Copy 10</title><g fill="#FFF"><path d="M38.9.2h25.7v3.6H38.9V.2zM12.6 34.5H9v-1.3c-1 1-2.2 1.5-3.6 1.5s-2.6-.4-3.5-1.3c-1-1-1.5-2.4-1.5-4.1V20h3.7v8.8c0 .9.3 1.6.8 2.1.4.4 1 .6 1.6.6.7 0 1.2-.2 1.6-.6.5-.5.8-1.1.8-2.1V20h3.7v14.5M28.2 34.5h-3.7v-8.8c0-.9-.3-1.6-.8-2.1-.4-.4-1-.6-1.6-.6-.7 0-1.2.2-1.6.6-.5.5-.8 1.2-.8 2.1v8.8H16V20h3.6v1.3c1-1 2.2-1.5 3.7-1.5 1.4 0 2.6.4 3.5 1.3 1 1 1.5 2.4 1.5 4.1v9.3M31.7 14.6h3.7v2.9h-3.7v-2.9zm0 5.4h3.7v14.5h-3.7V20zM51.2 27.2c0 1.5-.1 2.6-.2 3.3-.2 1.2-.6 2.1-1.3 2.8-.9.9-2.1 1.3-3.6 1.3s-2.7-.5-3.6-1.5v1.4H39V14.7h3.7v6.6c.9-1 2-1.4 3.5-1.4s2.7.4 3.5 1.3c.7.6 1.1 1.6 1.3 2.8.1.7.2 1.8.2 3.2m-3.7 0c0-1.3-.1-2.2-.3-2.8-.4-.9-1.1-1.4-2.1-1.4-1.1 0-1.8.5-2.1 1.4-.2.6-.3 1.5-.3 2.8 0 1.3.1 2.2.3 2.8.4.9 1.1 1.4 2.1 1.4 1.1 0 1.8-.5 2.1-1.4.2-.6.3-1.5.3-2.8M64.6 34.5H53.5v-2.7l6.5-8.5h-6.1V20h10.8v2.8L58 31.3h6.6v3.2M38.9 47.4h25.7V51H38.9v-3.6z"/></g></svg>