<?xml version="1.0" encoding="utf-8"?>
<!-- Generator: Adobe Illustrator 18.0.0, SVG Export Plug-In . SVG Version: 6.00 Build 0)  -->
<!DOCTYPE svg PUBLIC "-//W3C//DTD SVG 1.1//EN" "http://www.w3.org/Graphics/SVG/1.1/DTD/svg11.dtd">
<svg version="1.1" id="Layer_1" xmlns:sketch="http://www.bohemiancoding.com/sketch/ns"
	 xmlns="http://www.w3.org/2000/svg" xmlns:xlink="http://www.w3.org/1999/xlink" x="0px" y="0px" viewBox="200 0 556.9 560"
	 enable-background="new 200 0 556.9 560" xml:space="preserve">
<title>path-1</title>
<desc>Created with Sketch.</desc>
<path fill="#FFFFFF" d="M754.9,501.5L594.5,341.1c25.5-35.6,38.2-78.9,38.2-124.7C632.7,96.7,536,0,416.4,0S200,96.7,200,216.4
	s96.7,216.4,216.4,216.4c45.8,0,89.1-15.3,124.7-38.2l0,0L701.5,555c2.5,2.5,7.6,2.5,10.2,0l43.3-43.3
	C757.5,509.1,757.5,504,754.9,501.5z M416.4,381.8c-91.6,0-165.5-73.8-165.5-165.5S324.7,50.9,416.4,50.9s165.5,73.8,165.5,165.5
	S508,381.8,416.4,381.8z"/>
</svg>
