<?xml version="1.0" encoding="utf-8"?>
<!-- Generator: Adobe Illustrator 18.0.0, SVG Export Plug-In . SVG Version: 6.00 Build 0)  -->
<!DOCTYPE svg PUBLIC "-//W3C//DTD SVG 1.1//EN" "http://www.w3.org/Graphics/SVG/1.1/DTD/svg11.dtd">
<svg version="1.1" id="Layer_1" xmlns:sketch="http://www.bohemiancoding.com/sketch/ns"
	 xmlns="http://www.w3.org/2000/svg" xmlns:xlink="http://www.w3.org/1999/xlink" x="0px" y="0px" viewBox="0 0 22 22"
	 enable-background="new 0 0 22 22" xml:space="preserve">
<title>path-1</title>
<desc>Created with Sketch.</desc>
<path d="M21.8,19.7l-6.3-6.3c1-1.4,1.5-3.1,1.5-4.9C17,3.8,13.2,0,8.5,0S0,3.8,0,8.5S3.8,17,8.5,17c1.8,0,3.5-0.6,4.9-1.5l0,0
	l6.3,6.3c0.1,0.1,0.3,0.1,0.4,0l1.7-1.7C21.9,20,21.9,19.8,21.8,19.7z M8.5,15C4.9,15,2,12.1,2,8.5S4.9,2,8.5,2S15,4.9,15,8.5
	S12.1,15,8.5,15z"/>
</svg>
