<?xml version="1.0" encoding="utf-8"?>
<!-- Generator: Adobe Illustrator 18.0.0, SVG Export Plug-In . SVG Version: 6.00 Build 0)  -->
<!DOCTYPE svg PUBLIC "-//W3C//DTD SVG 1.1//EN" "http://www.w3.org/Graphics/SVG/1.1/DTD/svg11.dtd">
<svg version="1.1" id="Layer_1" xmlns="http://www.w3.org/2000/svg" xmlns:xlink="http://www.w3.org/1999/xlink" x="0px" y="0px"
	 viewBox="-6 -0.5 21 20" enable-background="new -6 -0.5 21 20" xml:space="preserve">
<g id="facebook">
	<path id="Facebook_1_" fill="#FFFFFF" d="M1.9,3.7c0,0.5,0,2.6,0,2.6H0v3.2h1.9V19h3.9V9.5h2.6c0,0,0.2-1.5,0.4-3.2c-0.3,0-3,0-3,0
		s0-1.9,0-2.2s0.4-0.8,0.9-0.8c0.4,0,1.3,0,2.1,0c0-0.4,0-1.9,0-3.3C7.8,0,6.5,0,5.9,0C1.8,0,1.9,3.2,1.9,3.7z"/>
</g>
<g id="Layer_1_1_">
</g>
</svg>
