<?xml version="1.0" encoding="utf-8"?>
<!-- Generator: Adobe Illustrator 18.0.0, SVG Export Plug-In . SVG Version: 6.00 Build 0)  -->
<!DOCTYPE svg PUBLIC "-//W3C//DTD SVG 1.1//EN" "http://www.w3.org/Graphics/SVG/1.1/DTD/svg11.dtd">
<svg version="1.1" id="Layer_1" xmlns="http://www.w3.org/2000/svg" xmlns:xlink="http://www.w3.org/1999/xlink" x="0px" y="0px"
	 viewBox="5.5 6 21 20" enable-background="new 5.5 6 21 20" xml:space="preserve">
<g id="facebook">
	<path id="Facebook_1_" fill="#3B5998" d="M12.4,9.9c0,0.5,0,2.7,0,2.7h-2V16h2v10h4.1V16h2.7c0,0,0.2-1.6,0.4-3.4
		c-0.3,0-3.2,0-3.2,0s0-2,0-2.3s0.4-0.8,0.9-0.8c0.4,0,1.4,0,2.2,0c0-0.4,0-2,0-3.5c-1.1,0-2.4,0-3.1,0C12.3,6,12.4,9.4,12.4,9.9z"
		/>
</g>
<g id="Layer_1_1_">
</g>
</svg>
