<?xml version="1.0" encoding="utf-8"?>
<!-- Generator: Adobe Illustrator 18.0.0, SVG Export Plug-In . SVG Version: 6.00 Build 0)  -->
<!DOCTYPE svg PUBLIC "-//W3C//DTD SVG 1.1//EN" "http://www.w3.org/Graphics/SVG/1.1/DTD/svg11.dtd">
<svg version="1.1" id="Layer_1" xmlns="http://www.w3.org/2000/svg" xmlns:xlink="http://www.w3.org/1999/xlink" x="0px" y="0px"
	 viewBox="5.5 6 21 20" enable-background="new 5.5 6 21 20" xml:space="preserve">
<path fill="#3F729B" d="M21.6,6H9.4C7.3,6,5.5,7.7,5.5,9.9V14v8.2c0,2.1,1.7,3.9,3.9,3.9h12.2c2.1,0,3.9-1.7,3.9-3.9V14V9.9
	C25.4,7.8,23.7,6,21.6,6z M22.7,8.4h0.4v0.4v2.9h-3.4V8.3L22.7,8.4z M12.7,14c0.6-0.9,1.7-1.5,2.9-1.5s2.2,0.6,2.9,1.5
	c0.4,0.6,0.7,1.3,0.7,2.1c0,1.9-1.6,3.5-3.5,3.5c-1.9,0-3.5-1.6-3.5-3.5C12,15.3,12.3,14.6,12.7,14z M23.5,22.1
	c0,1.1-0.9,1.9-1.9,1.9H9.4c-1.1,0-1.9-0.9-1.9-1.9V14h3c-0.3,0.6-0.4,1.3-0.4,2.1c0,3,2.5,5.5,5.5,5.5S21,19,21,16
	c0-0.7-0.1-1.4-0.4-2.1h3L23.5,22.1L23.5,22.1z"/>
</svg>
