<?xml version="1.0" encoding="utf-8"?>
<!-- Generator: Adobe Illustrator 18.0.0, SVG Export Plug-In . SVG Version: 6.00 Build 0)  -->
<!DOCTYPE svg PUBLIC "-//W3C//DTD SVG 1.1//EN" "http://www.w3.org/Graphics/SVG/1.1/DTD/svg11.dtd">
<svg version="1.1" id="Layer_1" xmlns="http://www.w3.org/2000/svg" xmlns:xlink="http://www.w3.org/1999/xlink" x="0px" y="0px"
	 viewBox="17.8 18.3 21 20" enable-background="new 17.8 18.3 21 20" xml:space="preserve">
<path fill="#FFFFFF" d="M34.5,18.3H22.2c-2.1,0-3.9,1.7-3.9,3.9v4.1v8.2c0,2.1,1.7,3.9,3.9,3.9h12.3c2.1,0,3.9-1.7,3.9-3.9v-8.2
	v-4.1C38.3,20.1,36.6,18.3,34.5,18.3z M35.6,20.7l0.4,0v0.4V24l-3.4,0l0-3.4L35.6,20.7z M25.5,26.3c0.6-0.9,1.7-1.5,2.9-1.5
	s2.2,0.6,2.9,1.5c0.4,0.6,0.7,1.3,0.7,2.1c0,1.9-1.6,3.5-3.5,3.5c-1.9,0-3.5-1.6-3.5-3.5C24.8,27.6,25.1,26.9,25.5,26.3z M36.4,34.5
	c0,1.1-0.9,1.9-1.9,1.9H22.2c-1.1,0-1.9-0.9-1.9-1.9v-8.2h3c-0.3,0.6-0.4,1.3-0.4,2.1c0,3,2.5,5.5,5.5,5.5c3,0,5.5-2.5,5.5-5.5
	c0-0.7-0.1-1.4-0.4-2.1h3V34.5z"/>
</svg>
