<?xml version="1.0" encoding="utf-8"?>
<!-- Generator: Adobe Illustrator 18.0.0, SVG Export Plug-In . SVG Version: 6.00 Build 0)  -->
<!DOCTYPE svg PUBLIC "-//W3C//DTD SVG 1.1//EN" "http://www.w3.org/Graphics/SVG/1.1/DTD/svg11.dtd">
<svg version="1.1" id="Livello_1" xmlns="http://www.w3.org/2000/svg" xmlns:xlink="http://www.w3.org/1999/xlink" x="0px" y="0px"
	 viewBox="5.5 6 21 20" enable-background="new 5.5 6 21 20" xml:space="preserve">
<path id="linkedin-icon" fill="#FFFFFF" d="M10.8,8.8c0,1.3-1.1,2.3-2.5,2.3s-2.5-1-2.5-2.3s1.1-2.3,2.5-2.3
	C9.7,6.5,10.8,7.5,10.8,8.8z M10.4,12.8H6.2v12.7h4.2V12.8z M17.1,12.8h-4v12.7h4c0,0,0-4.7,0-6.6c0-1.8,0.9-2.8,2.6-2.8
	c1.5,0,2.3,1,2.3,2.8s0,6.6,0,6.6h4.2c0,0,0-4.6,0-8s-2.1-5-5-5s-4.1,2.1-4.1,2.1L17.1,12.8L17.1,12.8z"/>
</svg>
