<?xml version="1.0" encoding="utf-8"?>
<!-- Generator: Adobe Illustrator 18.0.0, SVG Export Plug-In . SVG Version: 6.00 Build 0)  -->
<!DOCTYPE svg PUBLIC "-//W3C//DTD SVG 1.1//EN" "http://www.w3.org/Graphics/SVG/1.1/DTD/svg11.dtd">
<svg version="1.1" id="Layer_1" xmlns="http://www.w3.org/2000/svg" xmlns:xlink="http://www.w3.org/1999/xlink" x="0px" y="0px"
	 viewBox="389.5 630 21 20" enable-background="new 389.5 630 21 20" xml:space="preserve">
<g>
	<g>
		<g>
			<path fill="#FFFFFF" d="M403.8,643.4v4.7h-7.5v-4.7H403.8 M405.7,641.5h-11.3v8.5h11.3V641.5L405.7,641.5z"/>
		</g>
		<path fill="#FFFFFF" d="M405.7,635.9h-11.3c-2.1,0-3.8,1.7-3.8,3.8v5.7h4.7v-2.8h9.4v2.8h4.7v-5.7
			C409.4,637.6,407.7,635.9,405.7,635.9z M406.2,640.5c-0.8,0-1.4-0.6-1.4-1.4c0-0.8,0.6-1.4,1.4-1.4c0.8,0,1.4,0.6,1.4,1.4
			C407.5,640,407,640.5,406.2,640.5z"/>
	</g>
	<path fill="#FFFFFF" d="M394.3,630h11.3v3.8h-11.3V630z"/>
</g>
</svg>
