<?xml version="1.0" encoding="utf-8"?>
<!-- Generator: Adobe Illustrator 18.0.0, SVG Export Plug-In . SVG Version: 6.00 Build 0)  -->
<!DOCTYPE svg PUBLIC "-//W3C//DTD SVG 1.1//EN" "http://www.w3.org/Graphics/SVG/1.1/DTD/svg11.dtd">
<svg version="1.1" id="Layer_1" xmlns="http://www.w3.org/2000/svg" xmlns:xlink="http://www.w3.org/1999/xlink" x="0px" y="0px"
	 viewBox="5.5 6 21 20" enable-background="new 5.5 6 21 20" xml:space="preserve">
<g>
	<path fill="#FFFFFF" d="M10,6h12v4H10V6z"/>
	<g>
		<path fill="#FFFFFF" d="M20,19v5h-8v-5H20 M22,17H10v9h12V17L22,17z"/>
	</g>
	<path fill="#FFFFFF" d="M22,11H10c-2.2,0-4,1.8-4,4v6h5v-3h10v3h5v-6C26,12.8,24.2,11,22,11z M23,15c-0.6,0-1-0.4-1-1s0.4-1,1-1
		s1,0.4,1,1S23.6,15,23,15z"/>
</g>
</svg>
