<?xml version="1.0" encoding="utf-8"?>
<!-- Generator: Adobe Illustrator 18.0.0, SVG Export Plug-In . SVG Version: 6.00 Build 0)  -->
<!DOCTYPE svg PUBLIC "-//W3C//DTD SVG 1.1//EN" "http://www.w3.org/Graphics/SVG/1.1/DTD/svg11.dtd">
<svg version="1.1" id="Layer_1" xmlns="http://www.w3.org/2000/svg" xmlns:xlink="http://www.w3.org/1999/xlink" x="0px" y="0px"
	 viewBox="5.5 6 21 20" enable-background="new 5.5 6 21 20" xml:space="preserve">
<g id="twitter">
	<path fill="#55ACEE" d="M26,9.2c-0.8,0.3-1.5,0.5-2.4,0.7c0.9-0.4,1.5-1.3,1.8-2.4c-0.8,0.5-1.7,0.9-2.6,1.1
		c-0.8-0.9-1.8-1.4-3-1.4c-2.3,0-4.1,2-4.1,4.5c0,0.3,0,0.7,0.1,1c-3.5-0.1-6.5-2-8.6-4.6c-0.3,0.7-0.5,1.4-0.5,2.2
		c0,1.5,0.8,2.9,1.8,3.7c-0.7,0-1.3-0.2-1.8-0.5c0,0,0,0,0,0.1c0,2.2,1.4,4,3.4,4.3c-0.3,0.1-0.8,0.1-1.1,0.1c-0.2,0-0.5,0-0.8-0.1
		c0.5,1.7,2.1,3,3.9,3.2c-1.4,1.2-3.3,2-5.1,2c-0.3,0-0.7,0-1-0.1c1.6,1.3,3.8,2.1,6.2,2.1C19.8,24.9,24,18,24,12.1
		c0-0.2,0-0.4,0-0.5C24.8,10.9,25.5,10.1,26,9.2z"/>
</g>
<g id="Layer_1_1_">
</g>
</svg>
