<?xml version="1.0" encoding="utf-8"?>
<!-- Generator: Adobe Illustrator 18.0.0, SVG Export Plug-In . SVG Version: 6.00 Build 0)  -->
<!DOCTYPE svg PUBLIC "-//W3C//DTD SVG 1.1//EN" "http://www.w3.org/Graphics/SVG/1.1/DTD/svg11.dtd">
<svg version="1.1" id="Layer_1" xmlns="http://www.w3.org/2000/svg" xmlns:xlink="http://www.w3.org/1999/xlink" x="0px" y="0px"
	 viewBox="-1 -1.5 21 20" enable-background="new -1 -1.5 21 20" xml:space="preserve">
<g id="twitter">
	<path fill="#FFFFFF" d="M18.6,2.6c-0.7,0.3-1.4,0.5-2.2,0.6C17.2,2.8,17.8,2,18.1,1c-0.7,0.5-1.6,0.8-2.4,1C15,1.2,14,0.7,12.9,0.7
		c-2.1,0-3.8,1.8-3.8,4.1c0,0.3,0,0.6,0.1,0.9C6,5.6,3.2,3.9,1.3,1.5C1,2.1,0.8,2.8,0.8,3.5c0,1.4,0.7,2.7,1.7,3.4
		c-0.6,0-1.2-0.2-1.7-0.5c0,0,0,0,0,0.1c0,2,1.3,3.7,3.1,4c-0.3,0.1-0.7,0.1-1,0.1c-0.2,0-0.5,0-0.7-0.1c0.5,1.6,1.9,2.8,3.6,2.9
		c-1.3,1.1-3,1.8-4.7,1.8c-0.3,0-0.6,0-0.9-0.1C1.7,16.3,3.7,17,5.9,17c7,0,10.9-6.3,10.9-11.7c0-0.2,0-0.4,0-0.5
		C17.5,4.2,18.1,3.4,18.6,2.6z"/>
</g>
<g id="Layer_1_1_">
</g>
</svg>
